<?xml version="1.0" encoding="UTF-8"?>
<svg version="1.1" xmlns="http://www.w3.org/2000/svg" width="800" height="800">
<path d="M0 0 C264 0 528 0 800 0 C800 264 800 528 800 800 C536 800 272 800 0 800 C0 536 0 272 0 0 Z " fill="#FEFEFE" transform="translate(0,0)"/>
<path d="M0 0 C235.15065789 0 235.15065789 0 267 9 C267.74942871 9.20882812 268.49885742 9.41765625 269.27099609 9.6328125 C303.41698873 19.37720992 332.30194959 42.54371646 350 73 C365.71090532 101.30218111 370.48463569 132.90009275 370.5 164.875 C370.5063295 166.18283447 370.5063295 166.18283447 370.51278687 167.51708984 C370.54931386 184.63352011 368.20354074 200.68248169 363 217 C362.50306641 218.59134766 362.50306641 218.59134766 361.99609375 220.21484375 C356.85375724 236.20650199 349.15624687 251.35481496 338 264 C337.30261719 264.81726563 336.60523438 265.63453125 335.88671875 266.4765625 C319.72894042 285.01639341 299.29747751 298.46608644 276.30859375 307.11328125 C274.4319711 307.83408217 272.59000252 308.64461887 270.76171875 309.48046875 C266.73840467 311.21490668 262.6543811 312.12139977 258.375 313 C256.76937589 313.34041385 255.16390762 313.6815636 253.55859375 314.0234375 C252.38852783 314.2704541 252.38852783 314.2704541 251.19482422 314.52246094 C248.25993734 315.1610192 245.3514288 315.89743644 242.4375 316.625 C225.38219237 320.46065662 208.32028235 320.27473304 190.93546295 320.20256042 C187.69367412 320.19100368 184.45188992 320.19062527 181.21008301 320.18920898 C171.78587012 320.17879564 162.36168312 320.15087331 152.9375 320.125 C131.838125 320.08375 110.73875 320.0425 89 320 C89 376.76 89 433.52 89 492 C59.63 492 30.26 492 0 492 C0 329.64 0 167.28 0 0 Z " fill="#010101" transform="translate(9,153)"/>
<path d="M0 0 C27.39 0 54.78 0 83 0 C84.50471184 3.00942369 84.31792405 6.17170034 84.46484375 9.48046875 C84.54237011 11.04150535 84.61992666 12.60254044 84.69750977 14.16357422 C84.75613693 15.39379303 84.75613693 15.39379303 84.81594849 16.64886475 C85.37103375 28.24196619 85.95954662 39.81891504 87.0625 51.375 C87.87701926 59.92122262 88.36219655 68.44884507 88.65844727 77.02880859 C88.88512831 83.3793564 89.36604295 89.67717263 90 96 C90.31453125 94.94941406 90.6290625 93.89882813 90.953125 92.81640625 C96.08761568 75.86854409 103.22470976 59.47803078 115 46 C115.78761719 45.06929688 116.57523438 44.13859375 117.38671875 43.1796875 C142.09095364 14.62867668 176.22326968 2.69567657 213 0 C220.92 0 228.84 0 237 0 C237 33 237 66 237 100 C223.8 100.33 210.6 100.66 197 101 C170.51759819 102.52052068 144.61457233 106.26317659 122 121 C121.28585937 121.43570313 120.57171875 121.87140625 119.8359375 122.3203125 C104.32590273 132.63973802 95.96548782 152.58854704 92.44333267 170.09459686 C89.13542313 188.03324251 89.38849079 205.99388321 89.39249516 224.16525841 C89.38932216 228.9217962 89.36361495 233.67821716 89.34051514 238.43469238 C89.30028219 247.40121467 89.2796923 256.36766485 89.26654124 265.33426332 C89.24755827 277.479455 89.19745699 289.62451835 89.14929771 301.7696228 C89.07445569 320.84640838 89.04052031 339.92303905 89 359 C59.63 359 30.26 359 0 359 C0 240.53 0 122.06 0 0 Z " fill="#010101" transform="translate(413,286)"/>
<path d="M0 0 C27.10125 -0.0928125 27.10125 -0.0928125 54.75 -0.1875 C60.41510742 -0.21481201 66.08021484 -0.24212402 71.91699219 -0.27026367 C78.93603516 -0.28381348 78.93603516 -0.28381348 82.24151611 -0.28633118 C84.50732196 -0.2908812 86.77312142 -0.30131155 89.03887939 -0.31672668 C121.87195535 -0.52857223 155.28986509 4.02858362 180 28 C186.19349698 35.09386297 191.34650884 42.67814509 194.5 51.5625 C194.9021875 52.67753906 195.304375 53.79257812 195.71875 54.94140625 C196.15393439 56.2916867 196.5801493 57.64487338 197 59 C197.26619141 59.82089111 197.53238281 60.64178223 197.80664062 61.48754883 C200.51260875 70.8026342 200.55445531 79.94444761 200.5 89.5625 C200.49790527 90.40660431 200.49581055 91.25070862 200.49365234 92.12039185 C200.42968632 104.59598831 200.00642788 116.3828252 195 128 C194.72124023 128.6585498 194.44248047 129.31709961 194.15527344 129.99560547 C184.55620404 151.77156745 167.20465562 164.85054614 145.75390625 173.953125 C132.10721665 178.95425101 117.19023951 181.16338296 102.74047852 181.11352539 C101.60964561 181.11364593 100.47881269 181.11376646 99.31371212 181.11389065 C95.66875652 181.11314681 92.02385265 181.10554269 88.37890625 181.09765625 C86.12235539 181.09618519 83.8658042 181.09516549 81.60925293 181.09460449 C73.26033007 181.08937059 64.91141452 181.07540934 56.5625 181.0625 C37.896875 181.041875 19.23125 181.02125 0 181 C0 121.27 0 61.54 0 0 Z " fill="#FEFEFE" transform="translate(98,226)"/>
<path d="M0 0 C1.28519531 -0.01224609 2.57039062 -0.02449219 3.89453125 -0.03710938 C17.70964891 -0.0583634 30.75646838 2.54591678 41.23046875 12.3828125 C52.42017061 25.67238129 55.04136296 44.40681888 53.75 61.1875 C51.75289674 76.28430173 45.99681861 89.62192114 34 99.4375 C17.67281052 108.22906357 -4.17789052 109.12708012 -21.88671875 104.046875 C-24.82457845 102.97856238 -27.55583469 101.77636672 -30.25 100.1875 C-31.03375 99.795625 -31.8175 99.40375 -32.625 99 C-33.429375 98.5978125 -33.429375 98.5978125 -34.25 98.1875 C-34.25 97.5275 -34.25 96.8675 -34.25 96.1875 C-34.8275 95.96835937 -35.405 95.74921875 -36 95.5234375 C-43.29967963 91.18925272 -47.08971529 81.00830276 -49.55859375 73.26953125 C-53.56892459 55.39297173 -53.1925338 34.98632413 -43.45703125 19.07421875 C-43.05871094 18.45160156 -42.66039062 17.82898438 -42.25 17.1875 C-41.651875 16.135625 -41.05375 15.08375 -40.4375 14 C-30.44742946 1.15562359 -15.07991979 0.00747271 0 0 Z " fill="#9419F9" transform="translate(736.25,538.8125)"/>
<path d="M0 0 C0.66 0.33 1.32 0.66 2 1 C-2.29 5.29 -6.58 9.58 -11 14 C-11 9.40845608 -8.09282279 7.18698368 -5 4 C-3.3719908 2.61973133 -1.71956118 1.26438322 0 0 Z " fill="#E0DFE1" transform="translate(532,408)"/>
</svg>
